<svg width="179" height="61" viewBox="0 0 179 61" fill="none" xmlns="http://www.w3.org/2000/svg">
<path d="M35.555 30.76C35.3683 26.68 35.275 22.08 35.275 16.96C35.275 11.84 35.4083 7.46667 35.675 3.84L41.155 4.36C40.8883 7.66667 40.755 11.76 40.755 16.64C44.115 11.12 46.6483 6.49333 48.355 2.76L53.395 4.76C51.475 8.6 48.875 13.0533 45.595 18.12C48.2617 22.36 50.835 25.56 53.315 27.72L49.635 31.88C46.5417 28.8667 43.5817 24.7467 40.755 19.52C40.755 24.4 40.8483 28.3467 41.035 31.36L35.555 30.76ZM58.1009 23.8C58.1009 26.8133 58.7676 28.32 60.1009 28.32C60.6876 28.32 61.1809 27.48 61.5809 25.8C61.9809 24.0933 62.1809 22.4667 62.1809 20.92C62.1809 17.5067 61.6209 15.8 60.5009 15.8C59.7809 15.8 59.1943 16.72 58.7409 18.56C58.3143 20.3733 58.1009 22.12 58.1009 23.8ZM53.4209 23.44C53.4209 20.96 53.9276 18.5333 54.9409 16.16C55.4743 14.96 56.2209 13.9867 57.1809 13.24C58.1676 12.4667 59.2609 12.08 60.4609 12.08C61.6609 12.08 62.6876 12.36 63.5409 12.92C64.4209 13.4533 65.0876 14.1733 65.5409 15.08C66.4209 16.8667 66.8609 18.8133 66.8609 20.92C66.8609 23.8267 66.2609 26.4133 65.0609 28.68C63.8876 30.92 62.2343 32.04 60.1009 32.04C55.6476 32.04 53.4209 29.1733 53.4209 23.44ZM75.7475 16.56C74.6275 16.56 73.7875 17.9733 73.2275 20.8C73.2808 22.6667 73.3075 24.4533 73.3075 26.16C73.3075 27.8667 73.2542 29.7867 73.1475 31.92L68.5075 31.52C68.5875 27.6 68.6275 25.44 68.6275 25.04C68.6275 20.1067 68.3875 16.3333 67.9075 13.72L70.9075 14.04C71.0942 14.8133 71.3075 15.4933 71.5475 16.08C72.8542 13.28 74.1742 11.88 75.5075 11.88C76.6008 11.88 77.5608 12.36 78.3875 13.32L77.3475 17C76.9208 16.7067 76.3875 16.56 75.7475 16.56ZM84.5788 28.12C85.5921 28.12 86.6721 27.1467 87.8188 25.2L90.8588 27C90.3521 27.88 89.8588 28.6267 89.3788 29.24C88.9254 29.8533 88.2321 30.44 87.2988 31C86.3654 31.56 85.3254 31.84 84.1788 31.84C82.4988 31.84 81.0854 31.1333 79.9388 29.72C78.7921 28.28 78.2188 26.3467 78.2188 23.92C78.2188 21.1467 78.7121 18.56 79.6988 16.16C80.2321 14.9067 80.9921 13.8933 81.9788 13.12C82.9921 12.32 84.0188 11.92 85.0588 11.92C86.1254 11.92 86.9788 12.0933 87.6188 12.44C88.2588 12.76 88.7654 13.1333 89.1388 13.56C89.5388 13.96 89.8854 14.56 90.1788 15.36C90.4721 16.16 90.6721 16.8133 90.7788 17.32C90.9121 17.8267 91.0188 18.56 91.0988 19.52C91.2054 20.8 91.2588 21.96 91.2588 23C89.1254 23.5867 86.3654 24.12 82.9788 24.6C83.0588 25.6667 83.2454 26.52 83.5388 27.16C83.8321 27.8 84.1788 28.12 84.5788 28.12ZM85.4588 15.84C84.8721 15.84 84.3388 16.4267 83.8588 17.6C83.4054 18.7733 83.1388 20.1333 83.0588 21.68C84.4721 21.3867 85.6988 21.1067 86.7388 20.84C86.7388 17.5067 86.3121 15.84 85.4588 15.84ZM93.6663 31.68C93.5596 28.6667 93.5063 25.0533 93.5063 20.84C93.5063 16.6 93.6396 10.9467 93.9063 3.88C96.1463 3.05333 98.4396 2.64 100.786 2.64C103.16 2.64 105.266 3.52 107.106 5.28C108.973 7.01333 109.906 9.21333 109.906 11.88C109.906 14.52 108.893 16.8133 106.866 18.76C104.866 20.68 102.24 22.0933 98.9863 23C98.9863 25.9867 99.0263 29.0533 99.1063 32.2L93.6663 31.68ZM102.946 15.92C103.933 14.7733 104.426 13.4933 104.426 12.08C104.426 10.6667 104.053 9.52 103.306 8.64C102.586 7.76 101.773 7.32 100.866 7.32C100.626 7.32 100.08 7.38667 99.2263 7.52C99.0929 11.28 99.0129 14.92 98.9863 18.44C100.666 17.9067 101.986 17.0667 102.946 15.92Z" fill="white"/>
<path d="M123.197 25.4946C125.984 25.4946 128.242 23.2357 128.242 20.4492C128.242 17.6627 125.984 15.4038 123.197 15.4038C120.411 15.4038 118.152 17.6627 118.152 20.4492C118.152 23.2357 120.411 25.4946 123.197 25.4946Z" stroke="white" stroke-linecap="round" stroke-linejoin="round"/>
<path d="M133.145 18.6996C134.601 18.6996 135.781 17.5191 135.781 16.063C135.781 14.6068 134.601 13.4264 133.145 13.4264C131.688 13.4264 130.508 14.6068 130.508 16.063C130.508 17.5191 131.688 18.6996 133.145 18.6996Z" stroke="white" stroke-linecap="round" stroke-linejoin="round"/>
<path d="M115.514 31.4269C117.335 31.4269 118.81 29.9514 118.81 28.1312C118.81 26.311 117.335 24.8354 115.514 24.8354C113.694 24.8354 112.219 26.311 112.219 28.1312C112.219 29.9514 113.694 31.4269 115.514 31.4269Z" stroke="white" stroke-linecap="round" stroke-linejoin="round"/>
<path d="M121.086 31.1213C122.56 31.4112 124.077 31.3931 125.543 31.0682C127.01 30.7434 128.393 30.1187 129.606 29.2335C130.819 28.3484 131.836 27.2218 132.593 25.9247C133.349 24.6276 133.83 23.188 134.003 21.6963M129.852 11.8459C128.096 10.4902 125.967 9.70361 123.752 9.59163C121.536 9.47965 119.339 10.0476 117.455 11.2194C115.571 12.3912 114.09 14.1109 113.211 16.1479C112.332 18.1849 112.097 20.4419 112.537 22.6164" stroke="white" stroke-width="3" stroke-linecap="round" stroke-linejoin="round"/>
<path d="M35.0781 48.0312V41.166H34.4775V40.1943H36.2988V48.0312H35.0781ZM38.4789 43.4707V41.166H37.4975V40.1943H39.7191V43.4707H38.4789ZM41.3768 46L41.782 42.5332C41.8146 42.2695 41.8846 42.0189 41.992 41.7812C42.1027 41.5436 42.2312 41.3597 42.3777 41.2295C42.3908 41.2165 42.4038 41.2051 42.4168 41.1953C42.4331 41.1823 42.4461 41.1725 42.4559 41.166L42.451 41.1465C42.3175 41.1693 42.1515 41.2083 41.9529 41.2637C41.7544 41.3158 41.5786 41.3695 41.4256 41.4248L41.157 40.5166C41.4077 40.4255 41.6844 40.3473 41.9871 40.2822C42.2931 40.2139 42.604 40.1602 42.9197 40.1211C43.2387 40.082 43.5398 40.0625 43.823 40.0625C44.6596 40.0625 45.296 40.2806 45.7322 40.7168C46.1684 41.1497 46.3882 41.7878 46.3914 42.6309V46H43.9207V45.0283H45.1561V42.4746C45.1561 42.0254 45.0584 41.682 44.8631 41.4443C44.671 41.2035 44.3976 41.083 44.0428 41.083C43.7465 41.083 43.5073 41.1986 43.325 41.4297C43.1427 41.6576 43.0304 41.9766 42.9881 42.3867L42.5975 46H41.3768ZM48.425 43.4707V41.166H47.4436V40.1943H49.6652V43.4707H48.425ZM51.8502 46.0977C51.6679 46.0977 51.497 46.0863 51.3375 46.0635C51.178 46.0439 51.0055 46.0146 50.8199 45.9756L50.8346 45.0332C51.0559 45.069 51.2919 45.0869 51.5426 45.0869C51.7867 45.0869 51.969 45.0186 52.0895 44.8818C52.2099 44.7451 52.2701 44.5335 52.2701 44.2471V41.166H51.1959V40.1943H53.5104V44.3447C53.5104 44.9079 53.3655 45.3408 53.0758 45.6436C52.7861 45.9463 52.3775 46.0977 51.8502 46.0977ZM54.7285 46V45.0234H57.6973L58.9326 44.9795L59.6211 45.0674V46H54.7285ZM57.6973 45.7168V42.2988C57.6973 41.9082 57.6045 41.6217 57.4189 41.4395C57.2334 41.2572 56.9388 41.166 56.5352 41.166H55.0459V40.1943H56.6182C57.3636 40.1943 57.9349 40.3783 58.332 40.7461C58.7324 41.1139 58.9326 41.6478 58.9326 42.3477V45.7168H57.6973ZM60.1898 46V45.0234H63.1586L64.3939 44.9795L65.0824 45.0674V46H60.1898ZM63.1586 45.7168V42.2988C63.1586 41.9082 63.0658 41.6217 62.8803 41.4395C62.6947 41.2572 62.4001 41.166 61.9965 41.166H60.5072V40.1943H62.0795C62.8249 40.1943 63.3962 40.3783 63.7934 40.7461C64.1938 41.1139 64.3939 41.6478 64.3939 42.3477V45.7168H63.1586ZM71.3322 40.1943C72.0939 40.1943 72.6669 40.3783 73.051 40.7461C73.4383 41.1139 73.632 41.6657 73.632 42.4014V46H72.4016L72.3918 42.3086C72.3918 41.9147 72.3072 41.6266 72.1379 41.4443C71.9686 41.2588 71.7017 41.166 71.3371 41.166H70.5559C70.4777 41.3451 70.4159 41.5566 70.3703 41.8008C70.328 42.0417 70.3068 42.2809 70.3068 42.5186V44.3203C70.3068 44.8835 70.1636 45.3164 69.8771 45.6191C69.5939 45.9186 69.1919 46.0684 68.6711 46.0684C68.5539 46.0684 68.4432 46.0635 68.3391 46.0537C68.2382 46.0439 68.1307 46.0309 68.0168 46.0146V45.043C68.0721 45.0495 68.1275 45.0544 68.1828 45.0576C68.2382 45.0576 68.2919 45.0576 68.3439 45.0576C68.6011 45.0576 68.7915 44.9909 68.9152 44.8574C69.0389 44.724 69.1008 44.5156 69.1008 44.2324V42.626C69.1008 42.3851 69.1317 42.1279 69.1936 41.8545C69.2587 41.5778 69.3547 41.3483 69.4816 41.166H68.4904V40.1943H71.3322ZM79.1666 46L75.0553 40.1943H76.442L80.5484 46H79.1666ZM75.2799 46V43.9932C75.2799 43.4235 75.3808 42.971 75.5826 42.6357C75.7844 42.3005 76.11 42.0531 76.5592 41.8936L77.0133 42.5186C76.6552 42.7074 76.4762 43.0312 76.4762 43.4902V46H75.2799ZM80.5924 40.1943L78.6344 43.7832L77.8287 42.8164L79.2008 40.1943H80.5924ZM81.7373 46V45.0234H84.5986L81.3174 40.1943H82.7041L84.3496 42.7578L86.1904 45.4189V46H81.7373ZM84.6035 43.7246L83.8369 42.7334L85.126 40.1943H86.5176L84.6035 43.7246ZM87.2572 41.166V38.5H88.4975V40.1943H91.4076V41.166H87.2572ZM91.852 40.9805L89.8305 46H88.5121L90.9096 40.1943H91.852V40.9805ZM100.172 40.1943V48.0312H98.9465V41.166H97.2766C97.2212 41.2865 97.1724 41.4232 97.1301 41.5762C97.091 41.7259 97.0601 41.8805 97.0373 42.04C97.0145 42.1995 97.0031 42.3558 97.0031 42.5088V43.085C97.078 43.111 97.1691 43.1289 97.2766 43.1387C97.384 43.1484 97.5044 43.1517 97.6379 43.1484V44.0664C97.3807 44.0859 97.1431 44.0892 96.925 44.0762C96.7102 44.0599 96.51 44.0257 96.3244 43.9736C96.1421 43.9183 95.9696 43.8434 95.8068 43.749L95.7971 42.8945C95.7938 42.6797 95.8085 42.4665 95.841 42.2549C95.8768 42.04 95.9257 41.8382 95.9875 41.6494C96.0526 41.4606 96.1275 41.2995 96.2121 41.166H95.5627V40.1943H100.172ZM102.347 43.4707V41.166H101.366V40.1943H103.588V43.4707H102.347ZM106.471 46.0879C106.217 46.0879 105.95 46.0667 105.67 46.0244C105.393 45.9821 105.104 45.9235 104.801 45.8486L104.991 44.9355C105.509 45.0625 105.955 45.1243 106.329 45.1211C106.837 45.1146 107.213 44.9941 107.457 44.7598C107.704 44.5221 107.828 44.182 107.828 43.7393V41.166H105.016V40.1943H109.068V43.5049C109.068 44.1038 108.961 44.5938 108.746 44.9746C108.531 45.3555 108.23 45.637 107.843 45.8193C107.455 45.9984 106.998 46.0879 106.471 46.0879Z" fill="white"/>
</svg>