<svg width="169" height="61" viewBox="0 0 169 61" fill="none" xmlns="http://www.w3.org/2000/svg">
<path d="M12.4072 18.96L12.4472 23.56L18.4472 23.2C18.4472 19.04 18.5139 14.6267 18.6472 9.96L23.9272 10.44C23.6872 14.68 23.5672 19.28 23.5672 24.24C23.5672 29.1733 23.7139 34.1333 24.0072 39.12L18.8872 38.68C18.6472 36.3867 18.5005 32.7067 18.4472 27.64L12.5672 28C12.6472 31.7867 12.7672 35.64 12.9272 39.56L7.48719 39.08C7.19385 33.4533 7.04719 28.28 7.04719 23.56C7.04719 18.84 7.15385 14.76 7.36719 11.32L12.6472 11.8C12.4872 14.1733 12.4072 16.56 12.4072 18.96ZM32.2897 36.12C33.303 36.12 34.383 35.1467 35.5297 33.2L38.5697 35C38.063 35.88 37.5697 36.6267 37.0897 37.24C36.6364 37.8533 35.943 38.44 35.0097 39C34.0764 39.56 33.0364 39.84 31.8897 39.84C30.2097 39.84 28.7964 39.1333 27.6497 37.72C26.503 36.28 25.9297 34.3467 25.9297 31.92C25.9297 29.1467 26.423 26.56 27.4097 24.16C27.943 22.9067 28.703 21.8933 29.6897 21.12C30.703 20.32 31.7297 19.92 32.7697 19.92C33.8364 19.92 34.6897 20.0933 35.3297 20.44C35.9697 20.76 36.4764 21.1333 36.8497 21.56C37.2497 21.96 37.5964 22.56 37.8897 23.36C38.183 24.16 38.383 24.8133 38.4897 25.32C38.623 25.8267 38.7297 26.56 38.8097 27.52C38.9164 28.8 38.9697 29.96 38.9697 31C36.8364 31.5867 34.0764 32.12 30.6897 32.6C30.7697 33.6667 30.9564 34.52 31.2497 35.16C31.543 35.8 31.8897 36.12 32.2897 36.12ZM33.1697 23.84C32.583 23.84 32.0497 24.4267 31.5697 25.6C31.1164 26.7733 30.8497 28.1333 30.7697 29.68C32.183 29.3867 33.4097 29.1067 34.4497 28.84C34.4497 25.5067 34.023 23.84 33.1697 23.84ZM48.1772 24.56C47.0572 24.56 46.2172 25.9733 45.6572 28.8C45.7105 30.6667 45.7372 32.4533 45.7372 34.16C45.7372 35.8667 45.6839 37.7867 45.5772 39.92L40.9372 39.52C41.0172 35.6 41.0572 33.44 41.0572 33.04C41.0572 28.1067 40.8172 24.3333 40.3372 21.72L43.3372 22.04C43.5239 22.8133 43.7372 23.4933 43.9772 24.08C45.2839 21.28 46.6039 19.88 47.9372 19.88C49.0305 19.88 49.9905 20.36 50.8172 21.32L49.7772 25C49.3505 24.7067 48.8172 24.56 48.1772 24.56ZM57.0084 36.12C58.0218 36.12 59.1018 35.1467 60.2484 33.2L63.2884 35C62.7818 35.88 62.2884 36.6267 61.8084 37.24C61.3551 37.8533 60.6618 38.44 59.7284 39C58.7951 39.56 57.7551 39.84 56.6084 39.84C54.9284 39.84 53.5151 39.1333 52.3684 37.72C51.2218 36.28 50.6484 34.3467 50.6484 31.92C50.6484 29.1467 51.1418 26.56 52.1284 24.16C52.6618 22.9067 53.4218 21.8933 54.4084 21.12C55.4218 20.32 56.4484 19.92 57.4884 19.92C58.5551 19.92 59.4084 20.0933 60.0484 20.44C60.6884 20.76 61.1951 21.1333 61.5684 21.56C61.9684 21.96 62.3151 22.56 62.6084 23.36C62.9018 24.16 63.1018 24.8133 63.2084 25.32C63.3418 25.8267 63.4484 26.56 63.5284 27.52C63.6351 28.8 63.6884 29.96 63.6884 31C61.5551 31.5867 58.7951 32.12 55.4084 32.6C55.4884 33.6667 55.6751 34.52 55.9684 35.16C56.2618 35.8 56.6084 36.12 57.0084 36.12ZM57.8884 23.84C57.3018 23.84 56.7684 24.4267 56.2884 25.6C55.8351 26.7733 55.5684 28.1333 55.4884 29.68C56.9018 29.3867 58.1284 29.1067 59.1684 28.84C59.1684 25.5067 58.7418 23.84 57.8884 23.84ZM66.3359 39.16C66.2293 34.9467 66.1759 30.96 66.1759 27.2C66.1759 23.44 66.3893 18.5467 66.8159 12.52C71.3759 11.8267 75.8293 11.48 80.1759 11.48V16.4C77.1626 16.4 74.3626 16.4933 71.7759 16.68C71.6693 19.6667 71.6026 21.96 71.5759 23.56C73.6026 23.2667 76.0026 23.0933 78.7759 23.04L79.5359 27.44C77.7493 27.4667 75.0693 27.6667 71.4959 28.04C71.4959 31.24 71.5093 33.5467 71.5359 34.96C73.8559 34.7733 76.6293 34.3733 79.8559 33.76L80.5359 38.16C78.2693 39.2 75.5893 39.72 72.4959 39.72L66.3359 39.16ZM89.7466 39.64L84.6266 39.16C82.6532 31.2133 81.4532 24.9867 81.0266 20.48L85.5866 20.88C86.0399 25.7867 86.6666 30.1867 87.4666 34.08C88.5599 30.08 89.7199 25.0533 90.9466 19L95.2666 19.36C93.7466 26.3733 91.9066 33.1333 89.7466 39.64ZM101.235 36.12C102.248 36.12 103.328 35.1467 104.475 33.2L107.515 35C107.008 35.88 106.515 36.6267 106.035 37.24C105.582 37.8533 104.888 38.44 103.955 39C103.022 39.56 101.982 39.84 100.835 39.84C99.155 39.84 97.7417 39.1333 96.595 37.72C95.4483 36.28 94.875 34.3467 94.875 31.92C94.875 29.1467 95.3683 26.56 96.355 24.16C96.8883 22.9067 97.6483 21.8933 98.635 21.12C99.6483 20.32 100.675 19.92 101.715 19.92C102.782 19.92 103.635 20.0933 104.275 20.44C104.915 20.76 105.422 21.1333 105.795 21.56C106.195 21.96 106.542 22.56 106.835 23.36C107.128 24.16 107.328 24.8133 107.435 25.32C107.568 25.8267 107.675 26.56 107.755 27.52C107.862 28.8 107.915 29.96 107.915 31C105.782 31.5867 103.022 32.12 99.635 32.6C99.715 33.6667 99.9017 34.52 100.195 35.16C100.488 35.8 100.835 36.12 101.235 36.12ZM102.115 23.84C101.528 23.84 100.995 24.4267 100.515 25.6C100.062 26.7733 99.795 28.1333 99.715 29.68C101.128 29.3867 102.355 29.1067 103.395 28.84C103.395 25.5067 102.968 23.84 102.115 23.84ZM117.842 19.96C121.363 19.96 123.123 22.8933 123.123 28.76C123.123 31.8533 122.949 35.1333 122.603 38.6L117.923 38.16C118.216 35.12 118.363 32.0533 118.363 28.96C118.363 25.84 117.923 24.28 117.043 24.28C116.616 24.28 116.069 25.36 115.403 27.52C114.736 29.6533 114.323 31.7467 114.163 33.8C114.216 34.8933 114.323 36.8667 114.483 39.72L109.803 39.28C109.509 35.52 109.363 32.2133 109.363 29.36C109.363 26.5067 109.443 23.9467 109.603 21.68L112.562 22C112.616 22.2133 112.816 23.08 113.163 24.6C114.709 21.5067 116.269 19.96 117.842 19.96ZM134.916 22.28V26.08C133.636 26.08 132.649 26.0933 131.956 26.12C131.876 28.7867 131.836 33.2667 131.836 39.56L127.116 39.12C127.116 34.4533 127.156 30.2267 127.236 26.44C126.836 26.44 126.076 26.5067 124.956 26.64L124.356 23.36C124.996 23.2267 125.996 23.0533 127.356 22.84C127.409 20.8667 127.516 17.9867 127.676 14.2L132.436 14.64C132.276 17.28 132.156 19.84 132.076 22.32C132.742 22.2933 133.689 22.28 134.916 22.28Z" fill="white"/>
<path d="M153.697 19.4946C156.484 19.4946 158.742 17.2357 158.742 14.4492C158.742 11.6627 156.484 9.40381 153.697 9.40381C150.911 9.40381 148.652 11.6627 148.652 14.4492C148.652 17.2357 150.911 19.4946 153.697 19.4946Z" stroke="white" stroke-linecap="round" stroke-linejoin="round"/>
<path d="M163.645 12.6996C165.101 12.6996 166.281 11.5191 166.281 10.063C166.281 8.60683 165.101 7.42639 163.645 7.42639C162.188 7.42639 161.008 8.60683 161.008 10.063C161.008 11.5191 162.188 12.6996 163.645 12.6996Z" stroke="white" stroke-linecap="round" stroke-linejoin="round"/>
<path d="M146.014 25.4269C147.835 25.4269 149.31 23.9514 149.31 22.1312C149.31 20.311 147.835 18.8354 146.014 18.8354C144.194 18.8354 142.719 20.311 142.719 22.1312C142.719 23.9514 144.194 25.4269 146.014 25.4269Z" stroke="white" stroke-linecap="round" stroke-linejoin="round"/>
<path d="M151.586 25.1213C153.06 25.4112 154.577 25.3931 156.043 25.0682C157.509 24.7434 158.893 24.1187 160.106 23.2336C161.319 22.3484 162.336 21.2218 163.093 19.9247C163.849 18.6276 164.33 17.188 164.503 15.6963M160.352 5.84595C158.596 4.49019 156.467 3.70361 154.251 3.59163C152.036 3.47965 149.839 4.04762 147.955 5.21942C146.071 6.39122 144.59 8.11086 143.711 10.1479C142.832 12.1849 142.597 14.4419 143.036 16.6164" stroke="white" stroke-linecap="round" stroke-linejoin="round"/>
<path d="M94.1699 57.0312V50.166H93.5693V49.1943H95.3906V57.0312H94.1699ZM97.5707 52.4707V50.166H96.5893V49.1943H98.8109V52.4707H97.5707ZM100.469 55L100.874 51.5332C100.906 51.2695 100.976 51.0189 101.084 50.7812C101.194 50.5436 101.323 50.3597 101.47 50.2295C101.483 50.2165 101.496 50.2051 101.509 50.1953C101.525 50.1823 101.538 50.1725 101.548 50.166L101.543 50.1465C101.409 50.1693 101.243 50.2083 101.045 50.2637C100.846 50.3158 100.67 50.3695 100.517 50.4248L100.249 49.5166C100.499 49.4255 100.776 49.3473 101.079 49.2822C101.385 49.2139 101.696 49.1602 102.012 49.1211C102.331 49.082 102.632 49.0625 102.915 49.0625C103.751 49.0625 104.388 49.2806 104.824 49.7168C105.26 50.1497 105.48 50.7878 105.483 51.6309V55H103.012V54.0283H104.248V51.4746C104.248 51.0254 104.15 50.682 103.955 50.4443C103.763 50.2035 103.489 50.083 103.135 50.083C102.838 50.083 102.599 50.1986 102.417 50.4297C102.235 50.6576 102.122 50.9766 102.08 51.3867L101.689 55H100.469ZM107.517 52.4707V50.166H106.535V49.1943H108.757V52.4707H107.517ZM110.942 55.0977C110.76 55.0977 110.589 55.0863 110.429 55.0635C110.27 55.0439 110.097 55.0146 109.912 54.9756L109.926 54.0332C110.148 54.069 110.384 54.0869 110.634 54.0869C110.879 54.0869 111.061 54.0186 111.181 53.8818C111.302 53.7451 111.362 53.5335 111.362 53.2471V50.166H110.288V49.1943H112.602V53.3447C112.602 53.9079 112.457 54.3408 112.168 54.6436C111.878 54.9463 111.469 55.0977 110.942 55.0977ZM113.82 55V54.0234H116.789L118.024 53.9795L118.713 54.0674V55H113.82ZM116.789 54.7168V51.2988C116.789 50.9082 116.696 50.6217 116.511 50.4395C116.325 50.2572 116.031 50.166 115.627 50.166H114.138V49.1943H115.71C116.455 49.1943 117.027 49.3783 117.424 49.7461C117.824 50.1139 118.024 50.6478 118.024 51.3477V54.7168H116.789ZM119.282 55V54.0234H122.25L123.486 53.9795L124.174 54.0674V55H119.282ZM122.25 54.7168V51.2988C122.25 50.9082 122.158 50.6217 121.972 50.4395C121.787 50.2572 121.492 50.166 121.088 50.166H119.599V49.1943H121.171C121.917 49.1943 122.488 49.3783 122.885 49.7461C123.286 50.1139 123.486 50.6478 123.486 51.3477V54.7168H122.25ZM130.424 49.1943C131.186 49.1943 131.759 49.3783 132.143 49.7461C132.53 50.1139 132.724 50.6657 132.724 51.4014V55H131.493L131.484 51.3086C131.484 50.9147 131.399 50.6266 131.23 50.4443C131.06 50.2588 130.793 50.166 130.429 50.166H129.648C129.57 50.3451 129.508 50.5566 129.462 50.8008C129.42 51.0417 129.399 51.2809 129.399 51.5186V53.3203C129.399 53.8835 129.255 54.3164 128.969 54.6191C128.686 54.9186 128.284 55.0684 127.763 55.0684C127.646 55.0684 127.535 55.0635 127.431 55.0537C127.33 55.0439 127.223 55.0309 127.109 55.0146V54.043C127.164 54.0495 127.219 54.0544 127.275 54.0576C127.33 54.0576 127.384 54.0576 127.436 54.0576C127.693 54.0576 127.883 53.9909 128.007 53.8574C128.131 53.724 128.193 53.5156 128.193 53.2324V51.626C128.193 51.3851 128.224 51.1279 128.285 50.8545C128.35 50.5778 128.446 50.3483 128.573 50.166H127.582V49.1943H130.424ZM138.258 55L134.147 49.1943H135.534L139.64 55H138.258ZM134.372 55V52.9932C134.372 52.4235 134.473 51.971 134.674 51.6357C134.876 51.3005 135.202 51.0531 135.651 50.8936L136.105 51.5186C135.747 51.7074 135.568 52.0312 135.568 52.4902V55H134.372ZM139.684 49.1943L137.726 52.7832L136.921 51.8164L138.293 49.1943H139.684ZM140.829 55V54.0234H143.69L140.409 49.1943H141.796L143.441 51.7578L145.282 54.4189V55H140.829ZM143.695 52.7246L142.929 51.7334L144.218 49.1943H145.609L143.695 52.7246ZM146.349 50.166V47.5H147.589V49.1943H150.499V50.166H146.349ZM150.944 49.9805L148.922 55H147.604L150.001 49.1943H150.944V49.9805ZM159.264 49.1943V57.0312H158.038V50.166H156.368C156.313 50.2865 156.264 50.4232 156.222 50.5762C156.183 50.7259 156.152 50.8805 156.129 51.04C156.106 51.1995 156.095 51.3558 156.095 51.5088V52.085C156.17 52.111 156.261 52.1289 156.368 52.1387C156.476 52.1484 156.596 52.1517 156.73 52.1484V53.0664C156.473 53.0859 156.235 53.0892 156.017 53.0762C155.802 53.0599 155.602 53.0257 155.416 52.9736C155.234 52.9183 155.061 52.8434 154.899 52.749L154.889 51.8945C154.886 51.6797 154.9 51.4665 154.933 51.2549C154.969 51.04 155.017 50.8382 155.079 50.6494C155.144 50.4606 155.219 50.2995 155.304 50.166H154.654V49.1943H159.264ZM161.439 52.4707V50.166H160.458V49.1943H162.679V52.4707H161.439ZM165.562 55.0879C165.309 55.0879 165.042 55.0667 164.762 55.0244C164.485 54.9821 164.195 54.9235 163.893 54.8486L164.083 53.9355C164.601 54.0625 165.047 54.1243 165.421 54.1211C165.929 54.1146 166.305 53.9941 166.549 53.7598C166.796 53.5221 166.92 53.182 166.92 52.7393V50.166H164.107V49.1943H168.16V52.5049C168.16 53.1038 168.053 53.5938 167.838 53.9746C167.623 54.3555 167.322 54.637 166.935 54.8193C166.547 54.9984 166.09 55.0879 165.562 55.0879Z" fill="white"/>
</svg>
