<svg width="107" height="37" viewBox="0 0 107 37" fill="none" xmlns="http://www.w3.org/2000/svg">
<path d="M4.055 30.76C3.86833 26.68 3.775 22.08 3.775 16.96C3.775 11.84 3.90833 7.46667 4.175 3.84L9.655 4.36C9.38833 7.66667 9.255 11.76 9.255 16.64C12.615 11.12 15.1483 6.49333 16.855 2.76L21.895 4.76C19.975 8.6 17.375 13.0533 14.095 18.12C16.7617 22.36 19.335 25.56 21.815 27.72L18.135 31.88C15.0417 28.8667 12.0817 24.7467 9.255 19.52C9.255 24.4 9.34833 28.3467 9.535 31.36L4.055 30.76ZM26.6009 23.8C26.6009 26.8133 27.2676 28.32 28.6009 28.32C29.1876 28.32 29.6809 27.48 30.0809 25.8C30.4809 24.0933 30.6809 22.4667 30.6809 20.92C30.6809 17.5067 30.1209 15.8 29.0009 15.8C28.2809 15.8 27.6943 16.72 27.2409 18.56C26.8143 20.3733 26.6009 22.12 26.6009 23.8ZM21.9209 23.44C21.9209 20.96 22.4276 18.5333 23.4409 16.16C23.9743 14.96 24.7209 13.9867 25.6809 13.24C26.6676 12.4667 27.7609 12.08 28.9609 12.08C30.1609 12.08 31.1876 12.36 32.0409 12.92C32.9209 13.4533 33.5876 14.1733 34.0409 15.08C34.9209 16.8667 35.3609 18.8133 35.3609 20.92C35.3609 23.8267 34.7609 26.4133 33.5609 28.68C32.3876 30.92 30.7343 32.04 28.6009 32.04C24.1476 32.04 21.9209 29.1733 21.9209 23.44ZM44.2475 16.56C43.1275 16.56 42.2875 17.9733 41.7275 20.8C41.7808 22.6667 41.8075 24.4533 41.8075 26.16C41.8075 27.8667 41.7542 29.7867 41.6475 31.92L37.0075 31.52C37.0875 27.6 37.1275 25.44 37.1275 25.04C37.1275 20.1067 36.8875 16.3333 36.4075 13.72L39.4075 14.04C39.5942 14.8133 39.8075 15.4933 40.0475 16.08C41.3542 13.28 42.6742 11.88 44.0075 11.88C45.1008 11.88 46.0608 12.36 46.8875 13.32L45.8475 17C45.4208 16.7067 44.8875 16.56 44.2475 16.56ZM53.0788 28.12C54.0921 28.12 55.1721 27.1467 56.3188 25.2L59.3588 27C58.8521 27.88 58.3588 28.6267 57.8788 29.24C57.4254 29.8533 56.7321 30.44 55.7988 31C54.8654 31.56 53.8254 31.84 52.6788 31.84C50.9988 31.84 49.5854 31.1333 48.4388 29.72C47.2921 28.28 46.7188 26.3467 46.7188 23.92C46.7188 21.1467 47.2121 18.56 48.1988 16.16C48.7321 14.9067 49.4921 13.8933 50.4788 13.12C51.4921 12.32 52.5188 11.92 53.5588 11.92C54.6254 11.92 55.4788 12.0933 56.1188 12.44C56.7588 12.76 57.2654 13.1333 57.6388 13.56C58.0388 13.96 58.3854 14.56 58.6788 15.36C58.9721 16.16 59.1721 16.8133 59.2788 17.32C59.4121 17.8267 59.5188 18.56 59.5988 19.52C59.7054 20.8 59.7588 21.96 59.7588 23C57.6254 23.5867 54.8654 24.12 51.4788 24.6C51.5588 25.6667 51.7454 26.52 52.0388 27.16C52.3321 27.8 52.6788 28.12 53.0788 28.12ZM53.9588 15.84C53.3721 15.84 52.8388 16.4267 52.3588 17.6C51.9054 18.7733 51.6388 20.1333 51.5588 21.68C52.9721 21.3867 54.1988 21.1067 55.2388 20.84C55.2388 17.5067 54.8121 15.84 53.9588 15.84ZM62.1663 31.68C62.0596 28.6667 62.0063 25.0533 62.0063 20.84C62.0063 16.6 62.1396 10.9467 62.4063 3.88C64.6463 3.05333 66.9396 2.64 69.2863 2.64C71.6596 2.64 73.7663 3.52 75.6063 5.28C77.4729 7.01333 78.4063 9.21333 78.4063 11.88C78.4063 14.52 77.3929 16.8133 75.3663 18.76C73.3663 20.68 70.7396 22.0933 67.4863 23C67.4863 25.9867 67.5263 29.0533 67.6063 32.2L62.1663 31.68ZM71.4463 15.92C72.4329 14.7733 72.9263 13.4933 72.9263 12.08C72.9263 10.6667 72.5529 9.52 71.8063 8.64C71.0863 7.76 70.2729 7.32 69.3663 7.32C69.1263 7.32 68.5796 7.38667 67.7263 7.52C67.5929 11.28 67.5129 14.92 67.4863 18.44C69.1663 17.9067 70.4863 17.0667 71.4463 15.92Z" fill="white"/>
<path d="M91.6971 25.4946C94.4836 25.4946 96.7425 23.2357 96.7425 20.4492C96.7425 17.6627 94.4836 15.4038 91.6971 15.4038C88.9106 15.4038 86.6517 17.6627 86.6517 20.4492C86.6517 23.2357 88.9106 25.4946 91.6971 25.4946Z" stroke="white" stroke-linecap="round" stroke-linejoin="round"/>
<path d="M101.645 18.6996C103.101 18.6996 104.281 17.5191 104.281 16.063C104.281 14.6068 103.101 13.4264 101.645 13.4264C100.189 13.4264 99.0081 14.6068 99.0081 16.063C99.0081 17.5191 100.189 18.6996 101.645 18.6996Z" stroke="white" stroke-linecap="round" stroke-linejoin="round"/>
<path d="M84.0145 31.4269C85.8347 31.4269 87.3102 29.9514 87.3102 28.1312C87.3102 26.311 85.8347 24.8354 84.0145 24.8354C82.1943 24.8354 80.7188 26.311 80.7188 28.1312C80.7188 29.9514 82.1943 31.4269 84.0145 31.4269Z" stroke="white" stroke-linecap="round" stroke-linejoin="round"/>
<path d="M89.5861 31.1213C91.0596 31.4112 92.5771 31.3931 94.0433 31.0682C95.5095 30.7434 96.8926 30.1187 98.1057 29.2335C99.3189 28.3484 100.336 27.2218 101.093 25.9247C101.849 24.6276 102.33 23.188 102.503 21.6963M98.352 11.8459C96.5958 10.4902 94.4672 9.70361 92.2515 9.59163C90.0357 9.47965 87.8387 10.0476 85.9548 11.2194C84.071 12.3912 82.5903 14.1109 81.7112 16.1479C80.8322 18.1849 80.5968 20.4419 81.0365 22.6164" stroke="white" stroke-width="3" stroke-linecap="round" stroke-linejoin="round"/>
</svg>
