<svg width="13" height="13" viewBox="0 0 13 13" fill="none" xmlns="http://www.w3.org/2000/svg">
<path d="M6.49999 1.08337C5.78866 1.08337 5.0843 1.22348 4.42712 1.49569C3.76994 1.76791 3.17281 2.1669 2.66983 2.66988C1.654 3.6857 1.08332 5.06345 1.08332 6.50004C1.07859 7.75082 1.51167 8.96383 2.30749 9.92879L1.22416 11.0121C1.14899 11.0883 1.09808 11.185 1.07784 11.2901C1.05759 11.3952 1.06892 11.5039 1.11041 11.6025C1.15539 11.7 1.22833 11.7819 1.31995 11.8378C1.41157 11.8938 1.51774 11.9212 1.62499 11.9167H6.49999C7.93658 11.9167 9.31433 11.346 10.3301 10.3302C11.346 9.31438 11.9167 7.93663 11.9167 6.50004C11.9167 5.06345 11.346 3.6857 10.3301 2.66988C9.31433 1.65406 7.93658 1.08337 6.49999 1.08337ZM6.49999 10.8334H2.9304L3.43415 10.3296C3.53504 10.2281 3.59167 10.0908 3.59167 9.94775C3.59167 9.80465 3.53504 9.66736 3.43415 9.56587C2.72489 8.8574 2.28321 7.92492 2.18436 6.9273C2.08552 5.92969 2.33562 4.92867 2.89207 4.09478C3.44852 3.26089 4.27688 2.64574 5.23602 2.35411C6.19516 2.06248 7.22575 2.11243 8.15219 2.49545C9.07863 2.87847 9.84362 3.57086 10.3168 4.45465C10.79 5.33844 10.9421 6.35896 10.7473 7.34234C10.5524 8.32571 10.0226 9.21111 9.24815 9.84767C8.4737 10.4842 7.50248 10.8326 6.49999 10.8334ZM9.20832 5.95837H3.79165C3.648 5.95837 3.51022 6.01544 3.40864 6.11702C3.30706 6.21861 3.24999 6.35638 3.24999 6.50004C3.24999 6.6437 3.30706 6.78147 3.40864 6.88306C3.51022 6.98464 3.648 7.04171 3.79165 7.04171H9.20832C9.35198 7.04171 9.48976 6.98464 9.59134 6.88306C9.69292 6.78147 9.74999 6.6437 9.74999 6.50004C9.74999 6.35638 9.69292 6.21861 9.59134 6.11702C9.48976 6.01544 9.35198 5.95837 9.20832 5.95837ZM8.12499 8.12504H4.87499C4.73133 8.12504 4.59355 8.18211 4.49197 8.28369C4.39039 8.38527 4.33332 8.52305 4.33332 8.66671C4.33332 8.81037 4.39039 8.94814 4.49197 9.04972C4.59355 9.15131 4.73133 9.20837 4.87499 9.20837H8.12499C8.26865 9.20837 8.40642 9.15131 8.508 9.04972C8.60959 8.94814 8.66665 8.81037 8.66665 8.66671C8.66665 8.52305 8.60959 8.38527 8.508 8.28369C8.40642 8.18211 8.26865 8.12504 8.12499 8.12504ZM4.87499 4.87504H8.12499C8.26865 4.87504 8.40642 4.81797 8.508 4.71639C8.60959 4.61481 8.66665 4.47703 8.66665 4.33337C8.66665 4.18972 8.60959 4.05194 8.508 3.95036C8.40642 3.84878 8.26865 3.79171 8.12499 3.79171H4.87499C4.73133 3.79171 4.59355 3.84878 4.49197 3.95036C4.39039 4.05194 4.33332 4.18972 4.33332 4.33337C4.33332 4.47703 4.39039 4.61481 4.49197 4.71639C4.59355 4.81797 4.73133 4.87504 4.87499 4.87504Z" fill="white"/>
<circle cx="11" cy="3" r="2" fill="#FD0F00"/>
</svg>
